<?xml version="1.0" encoding="UTF-8"?>
<svg xmlns="http://www.w3.org/2000/svg" xmlns:xlink="http://www.w3.org/1999/xlink" version="1.1" id="Layer_1" x="0px" y="0px" width="85px" height="70px" viewBox="0 0 85 70" xml:space="preserve">
<g id="Layer_1_1_">
	<circle fill-opacity="0" cx="42.5" cy="34.75" r="32.834"></circle>
	<circle fill="none" stroke="#6C6C6C" stroke-width="2" stroke-miterlimit="10" cx="42.5" cy="34.75" r="32.834"></circle>
	<g display="none">
		<g display="inline">
			<path d="M39.896,53.997V21.668l3.538,3.536H32.824v-6.567h15.255v35.36H39.896z"></path>
		</g>
		<g display="inline">
			
				<radialGradient id="SVGID_1_" cx="747.4512" cy="578.3164" r="13.616" gradientTransform="matrix(1 0 0 1 -707 -542)" gradientUnits="userSpaceOnUse">
				<stop offset="0" style="stop-color:#FEC573"></stop>
				<stop offset="1" style="stop-color:#F0BA54"></stop>
			</radialGradient>
			<path fill="url(#SVGID_1_)" d="M39.896,53.997V21.668l3.538,3.536H32.824v-6.567h15.255v35.36H39.896z"></path>
		</g>
	</g>
	<g display="none">
		<g display="inline">
			<path fill="#EFBA54" d="M40.6,52V20l3.5,3.5H33.6V17h15.1v35H40.6z"></path>
		</g>
		<g display="inline">
			
				<radialGradient id="SVGID_2_" cx="748.1504" cy="574.5" r="13.4768" gradientTransform="matrix(1 0 0 1 -707 -540)" gradientUnits="userSpaceOnUse">
				<stop offset="0" style="stop-color:#FEC573"></stop>
				<stop offset="1" style="stop-color:#F0BA54"></stop>
			</radialGradient>
			<path fill="url(#SVGID_2_)" d="M40.6,52V20l3.5,3.5H33.6V17h15.1v35H40.6z"></path>
		</g>
	</g>
</g>
<g id="Layer_2" display="none">
	<g display="inline">
		<text transform="matrix(1 0 0 1 32.6152 53.6426)" fill="#EFBA54" font-family="'Montserrat-Bold'" font-size="50">1</text>
		<g>
			
				<radialGradient id="SVGID_3_" cx="747.5156" cy="577.1426" r="13.4771" gradientTransform="matrix(1 0 0 1 -707 -541)" gradientUnits="userSpaceOnUse">
				<stop offset="0" style="stop-color:#FEC573"></stop>
				<stop offset="1" style="stop-color:#F0BA54"></stop>
			</radialGradient>
			<path fill="url(#SVGID_3_)" d="M39.965,53.643v-32l3.5,3.5H32.966v-6.5h15.101v35H39.965z"></path>
		</g>
	</g>
</g>
<g id="Layer_2_copy_5" display="none">
	<g display="inline">
		<g>
			<path fill="#EFBA54" d="M44.215,52.243c-3.199,0-5.974-0.667-8.324-2c-2.351-1.333-4.159-3.282-5.426-5.851     c-1.267-2.566-1.899-5.732-1.899-9.5c0-4.033,0.758-7.45,2.274-10.25c1.516-2.8,3.617-4.933,6.301-6.4     c2.683-1.466,5.774-2.2,9.275-2.2c1.865,0,3.65,0.2,5.35,0.6c1.7,0.4,3.166,1,4.4,1.8l-3,5.95c-0.967-0.667-2-1.125-3.1-1.375     c-1.104-0.25-2.25-0.375-3.451-0.375c-3.033,0-5.433,0.917-7.2,2.75s-2.649,4.55-2.649,8.15c0,0.6,0.008,1.267,0.024,2     c0.017,0.733,0.108,1.467,0.275,2.2l-2.25-2.1c0.633-1.302,1.45-2.394,2.45-3.275c1-0.883,2.191-1.55,3.574-2     c1.383-0.45,2.908-0.675,4.576-0.675c2.267,0,4.299,0.45,6.101,1.35c1.801,0.9,3.241,2.167,4.323,3.8     c1.084,1.633,1.625,3.549,1.625,5.75c0,2.367-0.592,4.424-1.772,6.174c-1.185,1.75-2.769,3.103-4.75,4.051     C48.957,51.768,46.715,52.243,44.215,52.243z M43.766,46.193c1.133,0,2.143-0.209,3.025-0.625s1.574-1.025,2.074-1.825     s0.75-1.716,0.75-2.75c0-1.601-0.541-2.875-1.625-3.825c-1.084-0.949-2.525-1.425-4.324-1.425c-1.201,0-2.25,0.225-3.15,0.675     s-1.609,1.066-2.125,1.85c-0.518,0.784-0.775,1.693-0.775,2.728c0,1,0.25,1.892,0.75,2.675s1.2,1.398,2.1,1.852     C41.366,45.969,42.465,46.193,43.766,46.193z"></path>
		</g>
		<g>
			
				<radialGradient id="SVGID_4_" cx="750.0156" cy="575.1426" r="16.3766" gradientTransform="matrix(1 0 0 1 -707 -541)" gradientUnits="userSpaceOnUse">
				<stop offset="0" style="stop-color:#FEC573"></stop>
				<stop offset="1" style="stop-color:#F0BA54"></stop>
			</radialGradient>
			<path fill="url(#SVGID_4_)" d="M44.215,52.243c-3.199,0-5.974-0.667-8.324-2c-2.351-1.333-4.159-3.282-5.426-5.851     c-1.267-2.566-1.899-5.732-1.899-9.5c0-4.033,0.758-7.45,2.274-10.25c1.516-2.8,3.617-4.933,6.301-6.4     c2.683-1.466,5.774-2.2,9.275-2.2c1.865,0,3.65,0.2,5.35,0.6c1.7,0.4,3.166,1,4.4,1.8l-3,5.95c-0.967-0.667-2-1.125-3.1-1.375     c-1.104-0.25-2.25-0.375-3.451-0.375c-3.033,0-5.433,0.917-7.2,2.75s-2.649,4.55-2.649,8.15c0,0.6,0.008,1.267,0.024,2     c0.017,0.733,0.108,1.467,0.275,2.2l-2.25-2.1c0.633-1.302,1.45-2.394,2.45-3.275c1-0.883,2.191-1.55,3.574-2     c1.383-0.45,2.908-0.675,4.576-0.675c2.267,0,4.299,0.45,6.101,1.35c1.801,0.9,3.241,2.167,4.323,3.8     c1.084,1.633,1.625,3.549,1.625,5.75c0,2.367-0.592,4.424-1.772,6.174c-1.185,1.75-2.769,3.103-4.75,4.051     C48.957,51.768,46.715,52.243,44.215,52.243z M43.766,46.193c1.133,0,2.143-0.209,3.025-0.625s1.574-1.025,2.074-1.825     s0.75-1.716,0.75-2.75c0-1.601-0.541-2.875-1.625-3.825c-1.084-0.949-2.525-1.425-4.324-1.425c-1.201,0-2.25,0.225-3.15,0.675     s-1.609,1.066-2.125,1.85c-0.518,0.784-0.775,1.693-0.775,2.728c0,1,0.25,1.892,0.75,2.675s1.2,1.398,2.1,1.852     C41.366,45.969,42.465,46.193,43.766,46.193z"></path>
		</g>
	</g>
</g>
<g id="Layer_2_copy_4" display="none">
	<g display="inline">
		<g>
			<path fill="#EFBA54" d="M42.465,53.243c-2.434,0-4.842-0.325-7.225-0.976c-2.384-0.649-4.425-1.574-6.125-2.774l3.2-6.2     c1.333,0.967,2.875,1.734,4.625,2.301c1.75,0.567,3.524,0.85,5.325,0.85c2.033,0,3.631-0.398,4.799-1.198     c1.166-0.802,1.75-1.917,1.75-3.353c0-0.897-0.233-1.699-0.7-2.397c-0.468-0.7-1.291-1.233-2.476-1.603     c-1.185-0.365-2.843-0.549-4.976-0.549h-8.95l1.801-19.701h21.349v6.5h-18.45l4.2-3.7l-1.25,14.05l-4.2-3.7h7.4     c3.464,0,6.257,0.475,8.375,1.425c2.115,0.95,3.656,2.242,4.625,3.875c0.965,1.634,1.449,3.482,1.449,5.55     c0,2.068-0.519,3.977-1.552,5.727c-1.032,1.75-2.625,3.167-4.772,4.25C48.541,52.701,45.799,53.243,42.465,53.243z"></path>
		</g>
		<g>
			
				<radialGradient id="SVGID_5_" cx="750.0635" cy="576.4434" r="15.9904" gradientTransform="matrix(1 0 0 1 -707 -541)" gradientUnits="userSpaceOnUse">
				<stop offset="0" style="stop-color:#FEC573"></stop>
				<stop offset="1" style="stop-color:#F0BA54"></stop>
			</radialGradient>
			<path fill="url(#SVGID_5_)" d="M42.465,53.243c-2.434,0-4.842-0.325-7.225-0.976c-2.384-0.649-4.425-1.574-6.125-2.774l3.2-6.2     c1.333,0.967,2.875,1.734,4.625,2.301c1.75,0.567,3.524,0.85,5.325,0.85c2.033,0,3.631-0.398,4.799-1.198     c1.166-0.802,1.75-1.917,1.75-3.353c0-0.897-0.233-1.699-0.7-2.397c-0.468-0.7-1.291-1.233-2.476-1.603     c-1.185-0.365-2.843-0.549-4.976-0.549h-8.95l1.801-19.701h21.349v6.5h-18.45l4.2-3.7l-1.25,14.05l-4.2-3.7h7.4     c3.464,0,6.257,0.475,8.375,1.425c2.115,0.95,3.656,2.242,4.625,3.875c0.965,1.634,1.449,3.482,1.449,5.55     c0,2.068-0.519,3.977-1.552,5.727c-1.032,1.75-2.625,3.167-4.772,4.25C48.541,52.701,45.799,53.243,42.465,53.243z"></path>
		</g>
	</g>
</g>
<g id="Layer_2_copy_3" display="none">
	<g display="inline">
		<g>
			<path fill="#EFBA54" d="M26.166,43.293v-5.449l16.5-22.201h8.5l-16.15,22.201l-3.95-1.15h27.549v6.602L26.166,43.293     L26.166,43.293z M45.016,50.643v-7.35l0.25-6.6v-6.55h7.65v20.5H45.016z"></path>
		</g>
		<g>
			
				<radialGradient id="SVGID_6_" cx="749.3906" cy="574.1426" r="16.8744" gradientTransform="matrix(1 0 0 1 -707 -541)" gradientUnits="userSpaceOnUse">
				<stop offset="0" style="stop-color:#FEC573"></stop>
				<stop offset="1" style="stop-color:#F0BA54"></stop>
			</radialGradient>
			<path fill="url(#SVGID_6_)" d="M26.166,43.293v-5.449l16.5-22.201h8.5l-16.15,22.201l-3.95-1.15h27.549v6.602L26.166,43.293     L26.166,43.293z M45.016,50.643v-7.35l0.25-6.6v-6.55h7.65v20.5H45.016z"></path>
		</g>
	</g>
</g>
<g id="Layer_2_copy_2" display="none">
	<g display="inline">
		<g>
			<path fill="#EFBA54" d="M41.916,53.243c-2.434,0-4.85-0.325-7.25-0.976c-2.399-0.649-4.434-1.574-6.1-2.774l3.149-6.2     c1.333,0.967,2.883,1.734,4.65,2.301c1.767,0.566,3.55,0.85,5.35,0.85c2.033,0,3.633-0.398,4.801-1.198     c1.166-0.802,1.75-1.897,1.75-3.302c0-1.332-0.519-2.383-1.552-3.148c-1.032-0.768-2.698-1.148-5-1.148h-3.699v-5.352l9.75-11.05     l0.898,2.9h-18.35v-6.5h24.5v5.25l-9.701,11.05l-4.098-2.35h2.348c4.302,0,7.552,0.967,9.75,2.9     c2.201,1.935,3.302,4.417,3.302,7.448c0,1.969-0.519,3.811-1.552,5.525c-1.032,1.717-2.616,3.107-4.75,4.174     C47.98,52.71,45.248,53.243,41.916,53.243z"></path>
		</g>
		<g>
			
				<radialGradient id="SVGID_7_" cx="749.4902" cy="576.4434" r="15.9802" gradientTransform="matrix(1 0 0 1 -707 -541)" gradientUnits="userSpaceOnUse">
				<stop offset="0" style="stop-color:#FEC573"></stop>
				<stop offset="1" style="stop-color:#F0BA54"></stop>
			</radialGradient>
			<path fill="url(#SVGID_7_)" d="M41.916,53.243c-2.434,0-4.85-0.325-7.25-0.976c-2.399-0.649-4.434-1.574-6.1-2.774l3.149-6.2     c1.333,0.967,2.883,1.734,4.65,2.301c1.767,0.566,3.55,0.85,5.35,0.85c2.033,0,3.633-0.398,4.801-1.198     c1.166-0.802,1.75-1.897,1.75-3.302c0-1.332-0.519-2.383-1.552-3.148c-1.032-0.768-2.698-1.148-5-1.148h-3.699v-5.352l9.75-11.05     l0.898,2.9h-18.35v-6.5h24.5v5.25l-9.701,11.05l-4.098-2.35h2.348c4.302,0,7.552,0.967,9.75,2.9     c2.201,1.935,3.302,4.417,3.302,7.448c0,1.969-0.519,3.811-1.552,5.525c-1.032,1.717-2.616,3.107-4.75,4.174     C47.98,52.71,45.248,53.243,41.916,53.243z"></path>
		</g>
	</g>
</g>
<g id="Layer_2_copy" display="none">
	<g display="inline">
		<g>
			<path fill="#EFBA54" d="M30.266,51.643v-5.25l13.5-12.75c1.066-0.966,1.852-1.833,2.352-2.6c0.5-0.766,0.842-1.466,1.023-2.1     c0.186-0.633,0.275-1.216,0.275-1.75c0-1.4-0.475-2.475-1.426-3.225c-0.949-0.75-2.342-1.125-4.174-1.125     c-1.468,0-2.825,0.283-4.075,0.85s-2.309,1.45-3.175,2.65l-5.9-3.8c1.333-2,3.2-3.583,5.601-4.75     c2.399-1.167,5.166-1.75,8.3-1.75c2.6,0,4.875,0.425,6.826,1.275c1.948,0.85,3.467,2.042,4.551,3.575     c1.082,1.534,1.625,3.367,1.625,5.5c0,1.134-0.144,2.259-0.426,3.375c-0.283,1.117-0.851,2.292-1.699,3.525     c-0.853,1.234-2.094,2.617-3.728,4.15l-11.199,10.55l-1.551-2.95h19.75v6.6H30.266z"></path>
		</g>
		<g>
			
				<radialGradient id="SVGID_8_" cx="749.6914" cy="574.8428" r="16.0237" gradientTransform="matrix(1 0 0 1 -707 -541)" gradientUnits="userSpaceOnUse">
				<stop offset="0" style="stop-color:#FEC573"></stop>
				<stop offset="1" style="stop-color:#F0BA54"></stop>
			</radialGradient>
			<path fill="url(#SVGID_8_)" d="M30.266,51.643v-5.25l13.5-12.75c1.066-0.966,1.852-1.833,2.352-2.6     c0.5-0.766,0.842-1.466,1.023-2.1c0.186-0.633,0.275-1.216,0.275-1.75c0-1.4-0.475-2.475-1.426-3.225     c-0.949-0.75-2.342-1.125-4.174-1.125c-1.468,0-2.825,0.283-4.075,0.85s-2.309,1.45-3.175,2.65l-5.9-3.8     c1.333-2,3.2-3.583,5.601-4.75c2.399-1.167,5.166-1.75,8.3-1.75c2.6,0,4.875,0.425,6.826,1.275     c1.948,0.85,3.467,2.042,4.551,3.575c1.082,1.534,1.625,3.367,1.625,5.5c0,1.134-0.144,2.259-0.426,3.375     c-0.283,1.117-0.851,2.292-1.699,3.525c-0.853,1.234-2.094,2.617-3.728,4.15l-11.199,10.55l-1.551-2.95h19.75v6.6H30.266z"></path>
		</g>
	</g>
</g>
<g id="Layer_2_copy_6">
	<g>
		<g>
			<path fill="#EFBA54" d="M39.965,53.643v-32l3.5,3.5H32.966v-6.5h15.101v35H39.965z"></path>
		</g>
		<g>
			<path fill="#3E3E3E" d="M39.965,53.643v-32l3.5,3.5H32.966v-6.5h15.101v35H39.965z"></path>
		</g>
	</g>
</g>
</svg>
